<?xml version="1.0" standalone="no"?>
<!DOCTYPE svg PUBLIC "-//W3C//DTD SVG 20010904//EN"
 "http://www.w3.org/TR/2001/REC-SVG-20010904/DTD/svg10.dtd">
<svg version="1.0" xmlns="http://www.w3.org/2000/svg"
 width="128.000000pt" height="128.000000pt" viewBox="0 0 128.000000 128.000000"
 preserveAspectRatio="xMidYMid meet">
<metadata>
Created by potrace 1.14, written by Peter Selinger 2001-2017
</metadata>
<g transform="translate(0.000000,128.000000) scale(0.100000,-0.100000)"
fill="#000000" stroke="none">
<path d="M535 1253 c-50 -9 -145 -38 -145 -45 0 -5 -6 -8 -14 -8 -17 0 -89
-40 -94 -52 -2 -4 -8 -8 -14 -8 -5 0 -15 -6 -22 -12 -7 -7 -32 -31 -56 -52
-73 -67 -151 -206 -176 -313 -13 -58 -12 -225 3 -276 8 -29 16 -59 18 -67 2
-8 4 -16 5 -17 2 -2 3 -6 5 -10 24 -87 168 -262 252 -306 145 -78 196 -90 361
-85 123 3 144 7 207 32 197 81 333 236 384 439 102 401 -216 798 -629 785 -36
-1 -74 -3 -85 -5z"/>
</g>
</svg>
